<svg width="48" height="48" viewBox="0 0 48 48" fill="none" xmlns="http://www.w3.org/2000/svg">
<rect width="48" height="48" rx="24" fill="#E8E8E8"/>
<path d="M22.125 37.75C18.7708 34.8958 16.2656 32.2448 14.6094 29.7969C12.9531 27.349 12.125 25.0833 12.125 23C12.125 19.875 13.1302 17.3854 15.1406 15.5312C17.151 13.6771 19.4792 12.75 22.125 12.75C22.3333 12.75 22.5417 12.75 22.75 12.75C22.9583 12.75 23.1667 12.7708 23.375 12.8125V15.3438C23.1667 15.3021 22.9635 15.276 22.7656 15.2656C22.5677 15.2552 22.3542 15.25 22.125 15.25C20.0208 15.25 18.2448 15.974 16.7969 17.4219C15.349 18.8698 14.625 20.7292 14.625 23C14.625 24.4792 15.2396 26.1719 16.4688 28.0781C17.6979 29.9844 19.5833 32.1042 22.125 34.4375C24.6667 32.1042 26.5521 29.9844 27.7812 28.0781C29.0104 26.1719 29.625 24.4792 29.625 23C29.625 22.9583 29.625 22.9167 29.625 22.875C29.625 22.8333 29.625 22.7917 29.625 22.75H32.125C32.125 22.7917 32.125 22.8333 32.125 22.875C32.125 22.9167 32.125 22.9583 32.125 23C32.125 25.0833 31.2969 27.349 29.6406 29.7969C27.9844 32.2448 25.4792 34.8958 22.125 37.75ZM22.125 25.25C22.8125 25.25 23.401 25.0052 23.8906 24.5156C24.3802 24.026 24.625 23.4375 24.625 22.75C24.625 22.0625 24.3802 21.474 23.8906 20.9844C23.401 20.4948 22.8125 20.25 22.125 20.25C21.4375 20.25 20.849 20.4948 20.3594 20.9844C19.8698 21.474 19.625 22.0625 19.625 22.75C19.625 23.4375 19.8698 24.026 20.3594 24.5156C20.849 25.0052 21.4375 25.25 22.125 25.25ZM29.625 20.25H32.125V16.5H35.875V14H32.125V10.25H29.625V14H25.875V16.5H29.625V20.25Z" fill="#707A6C"/>
</svg>
