<svg width="19" height="16" viewBox="0 0 19 16" fill="none" xmlns="http://www.w3.org/2000/svg">
<path d="M12 8.125V0H14V6.125L12 8.125V8.125M0 16V0H2V16H0V16M6 4V0H8V4H6V4M6 10V6H8V10H6V10M6 16V12H8V16H6V16M10 16V12.925L15.525 7.425C15.675 7.275 15.8417 7.16667 16.025 7.1C16.2083 7.03333 16.3917 7 16.575 7C16.775 7 16.9667 7.0375 17.15 7.1125C17.3333 7.1875 17.5 7.3 17.65 7.45L18.575 8.375C18.7083 8.525 18.8125 8.69167 18.8875 8.875C18.9625 9.05833 19 9.24167 19 9.425C19 9.60833 18.9667 9.79583 18.9 9.9875C18.8333 10.1792 18.725 10.35 18.575 10.5L13.075 16H10V16M17.5 9.425V9.425L16.575 8.5V8.5L17.5 9.425V9.425M11.5 14.5H12.45L15.475 11.45L15.025 10.975L14.55 10.525L11.5 13.55V14.5V14.5M15.025 10.975L14.55 10.525V10.525L15.475 11.45V11.45L15.025 10.975V10.975" fill="#7A5649"/>
</svg>
